HIERARCHY
ROOT root
{
	OFFSET	0	13.1	24.9
	CHANNELS 6  Xposition Yposition Zposition Xrotation Yrotation Zrotation
	JOINT spine_1
	{
		OFFSET	0	9.99999	0
		CHANNELS 3  Xrotation Yrotation Zrotation
		JOINT spine_2
		{
			OFFSET	0	112	-10
			CHANNELS 3  Xrotation Yrotation Zrotation
			JOINT spine_3
			{
				OFFSET	0	206.5	19.3
				CHANNELS 3  Xrotation Yrotation Zrotation
				JOINT spine_4
				{
					OFFSET	0	110.4	14.6
					CHANNELS 3  Xrotation Yrotation Zrotation
					JOINT neck_1
					{
						OFFSET	0	71.8	-50.3
						CHANNELS 3  Xrotation Yrotation Zrotation
						JOINT neck_2
						{
							OFFSET	0	86.2	-25.8
							CHANNELS 3  Xrotation Yrotation Zrotation
							JOINT head_ee
							{
								OFFSET	0	179.8	-8.7
								CHANNELS 3  Xrotation Yrotation Zrotation
								End Site
								{
									OFFSET	1	0	0
								}
							}
						}
					}
					JOINT left_clavicle
					{
						OFFSET	-43.2	22.4	-70.8
						CHANNELS 3  Xrotation Yrotation Zrotation
						JOINT left_shoulder
						{
							OFFSET	-93.9	-5.79999	48.7
							CHANNELS 3  Xrotation Yrotation Zrotation
							JOINT left_elbow
							{
								OFFSET	-291.4	-30.8	15.2
								CHANNELS 3  Xrotation Yrotation Zrotation
								JOINT left_lowarm_twist
								{
									OFFSET	-110.7	-3.89999	13.6
									CHANNELS 3  Xrotation Yrotation Zrotation
									JOINT left_hand
									{
										OFFSET	-110.7	-3.89999	13.6
										CHANNELS 3  Xrotation Yrotation Zrotation
										JOINT left_ee
										{
											OFFSET	-80.8	-5.10001	12.1
											CHANNELS 3  Xrotation Yrotation Zrotation
											End Site
											{
												OFFSET	1	0	0
											}
										}
									}
								}
							}
						}
					}
					JOINT right_clavicle
					{
						OFFSET	43.2	22.4	-70.8
						CHANNELS 3  Xrotation Yrotation Zrotation
						JOINT right_shoulder
						{
							OFFSET	93.9	-5.79999	48.7
							CHANNELS 3  Xrotation Yrotation Zrotation
							JOINT right_elbow
							{
								OFFSET	291.4	-30.8	15.2
								CHANNELS 3  Xrotation Yrotation Zrotation
								JOINT right_lowarm_twist
								{
									OFFSET	110.7	-3.89999	13.6
									CHANNELS 3  Xrotation Yrotation Zrotation
									JOINT right_hand
									{
										OFFSET	110.7	-3.89999	13.6
										CHANNELS 3  Xrotation Yrotation Zrotation
										JOINT right_ee
										{
											OFFSET	80.8	-5.10001	12.1
											CHANNELS 3  Xrotation Yrotation Zrotation
											End Site
											{
												OFFSET	1	0	0
											}
										}
									}
								}
							}
						}
					}
				}
			}
		}
	}
	JOINT left_hip
	{
		OFFSET	-82.8	-127.5	0.300001
		CHANNELS 3  Xrotation Yrotation Zrotation
		JOINT left_knee
		{
			OFFSET	-28.2	-396.7	2.2
			CHANNELS 3  Xrotation Yrotation Zrotation
			JOINT left_ankle
			{
				OFFSET	-11.7	-411.3	35.4
				CHANNELS 3  Xrotation Yrotation Zrotation
				JOINT left_toes
				{
					OFFSET	0	-60	-88.6
					CHANNELS 3  Xrotation Yrotation Zrotation
					JOINT left_foot_ee
					{
						OFFSET	-22.5	-16.5	-42.2
						CHANNELS 3  Xrotation Yrotation Zrotation
						End Site
						{
							OFFSET	1	0	0
						}
					}
				}
			}
		}
	}
	JOINT right_hip
	{
		OFFSET	82.8	-127.5	0.300001
		CHANNELS 3  Xrotation Yrotation Zrotation
		JOINT right_knee
		{
			OFFSET	28.2	-396.7	2.2
			CHANNELS 3  Xrotation Yrotation Zrotation
			JOINT right_ankle
			{
				OFFSET	11.7	-411.3	35.4
				CHANNELS 3  Xrotation Yrotation Zrotation
				JOINT right_toes
				{
					OFFSET	0	-60	-88.6
					CHANNELS 3  Xrotation Yrotation Zrotation
					JOINT right_foot_ee
					{
						OFFSET	22.5	-16.5	-42.2
						CHANNELS 3  Xrotation Yrotation Zrotation
						End Site
						{
							OFFSET	1	0	0
						}
					}
				}
			}
		}
	}
}
MOTION
Frames: 15
Frame Time: 0.02
1275.36 666.648 -1449.96 -2.85838 76.5231 -3.4112 -0.0147013 0.367879 3.76022 -0.00684587 0.128035 3.77598 0.00535841 -0.668945 3.71854 -0.0139259 -0.0737137 3.77743 -13.6526 13.57 -18.6392 -13.6466 37.2498 -13.6325 -0.0 0.0 -0.0 -9.64492 22.0194 -11.3874 25.9307 -33.3748 75.7242 4.84001 -67.3361 3.22505 -26.053 -1.60423 2.89015 -1.37447 14.4877 -2.6166 -0.0 0.0 -0.0 9.21151 1.89714 -18.0955 -32.313 37.1468 -63.6337 0.436975 12.2143 -0.0467545 -54.6692 4.62823 -4.90455 -3.27453 -20.2108 11.3549 0.0 0.0 0.0 -17.7168 -1.24354 11.3589 -18.0363 0.313842 2.73862 41.1075 14.7606 -5.02706 -15.5032 0.0 0.0 -0.0 0.0 -0.0 33.5903 20.7589 -0.928815 -2.37374 -0.0904326 -0.35304 -7.30565 2.81022 -1.10687 -16.3554 0.0 0.0 0.0 0.0 0.0 
1254.81 665.543 -1456.47 -3.21529 77.1037 -3.82349 -0.0827685 0.365925 3.87017 -0.0744454 0.119104 3.88558 -0.0622582 -0.705325 3.82298 -0.0826365 -0.0931808 3.88629 -12.147 13.2035 -18.1625 -11.8626 36.5905 -13.8818 -0.0 0.0 -0.0 -9.73755 22.3432 -11.3954 23.5503 -33.537 75.4089 4.86719 -67.4497 3.25014 -25.3279 -1.54242 2.82074 -1.0788 14.6971 -0.68579 -0.0 0.0 -0.0 9.77438 1.59526 -19.2544 -31.8178 37.3054 -63.31 0.398883 11.1776 -0.0390321 -54.2816 4.58138 -4.88789 -3.20542 -20.926 10.5302 0.0 0.0 0.0 -19.7935 -1.87814 11.8093 -14.7746 0.321274 2.23831 37.6997 14.1434 -4.70923 -15.7897 0.0 0.0 -0.0 0.0 -0.0 33.3387 20.6369 -0.565258 -3.8089 -0.137978 -0.568158 -8.98362 4.12733 -1.37152 -17.1257 0.0 0.0 0.0 0.0 0.0 
1235.07 664.301 -1458.99 -0.396705 77.452 -7.47952 -0.13415 0.38298 3.89562 -0.125719 0.134509 3.91206 -0.11223 -0.699214 3.85151 -0.132916 -0.0826504 3.9135 -11.6932 13.4794 -18.5619 -11.3013 37.4574 -14.3908 -0.0 0.0 -0.0 -9.84257 22.7841 -11.3712 20.5231 -35.8025 74.4243 4.85729 -67.4084 3.24101 -24.6027 -1.4815 2.75055 -0.973909 13.6412 -0.496904 -0.0 0.0 -0.0 9.88178 2.6979 -19.5154 -31.2472 37.6559 -62.3212 0.441358 12.3331 -0.0476862 -54.5837 4.61789 -4.9009 -3.13782 -20.3349 10.4575 0.0 0.0 0.0 -20.2108 -1.80857 12.0392 -17.1458 0.318698 2.60208 36.9916 13.1488 -4.63039 -15.1864 0.0 0.0 -0.0 0.0 -0.0 32.0364 20.786 0.425278 -5.83005 -0.19576 -0.872941 -7.86787 5.49338 -1.20594 -16.5646 0.0 0.0 0.0 0.0 0.0 
1207.57 671.817 -1469.75 4.2254 77.9194 -12.4113 -0.159473 0.464178 3.98084 -0.150683 0.210133 4.00226 -0.131303 -0.645662 3.9555 -0.153131 -0.0133843 4.00774 -11.5447 13.7001 -17.2474 -11.2752 37.0477 -13.0371 -0.0 0.0 -0.0 -9.89519 23.1506 -11.2965 16.0379 -37.6928 72.712 4.36064 -65.1385 2.78625 -23.715 -1.40815 2.66361 -0.476151 11.7874 1.84189 -0.0 0.0 -0.0 10.5766 1.93401 -20.9511 -30.9608 37.8905 -61.598 0.446121 12.462 -0.0487089 -54.4417 4.60071 -4.8948 -3.11225 -21.1947 9.82076 0.0 0.0 0.0 -21.7437 -2.53708 11.4564 -16.7362 0.320218 2.53925 29.575 11.0553 -3.85631 -16.0162 0.0 0.0 -0.0 0.0 -0.0 31.2997 21.023 0.534243 -9.85019 -0.278556 -1.48417 -8.05091 11.4281 -1.27444 -16.8878 0.0 0.0 0.0 0.0 0.0 
1188.74 671.715 -1478.94 5.6194 78.8002 -13.8487 -0.237121 0.522672 4.16965 -0.227488 0.256526 4.1944 -0.203277 -0.646405 4.1523 -0.22733 0.0168832 4.20219 -11.1938 13.9217 -17.2014 -10.8753 37.4946 -13.0686 -0.0 0.0 -0.0 -8.69964 21.1454 -10.2851 11.5221 -38.3114 69.0183 4.05496 -63.5159 2.51071 -23.0832 -1.35677 2.60105 0.0127363 10.9592 4.61173 -0.0 0.0 -0.0 10.9913 3.19549 -21.89 -29.723 38.3584 -61.6314 0.458987 12.8097 -0.0515233 -54.3833 4.59365 -4.89229 -3.01726 -20.4989 9.64009 0.0 0.0 0.0 -21.4059 -1.74112 11.4545 -14.8661 0.321454 2.25235 26.733 11.4677 -3.54229 -15.6098 0.0 0.0 -0.0 0.0 -0.0 30.4852 20.1282 0.286819 -11.7507 -0.302724 -1.77478 -4.18929 10.7415 -0.655497 -15.7436 0.0 0.0 0.0 0.0 0.0 
1162.21 679.336 -1482.76 8.47432 78.0342 -16.9312 -0.21733 0.634345 4.0597 -0.208242 0.374952 4.09177 -0.176105 -0.506483 4.0776 -0.199272 0.143292 4.10639 -11.2379 13.6243 -19.2109 -10.6889 38.2444 -15.2131 -0.0 0.0 -0.0 -8.53028 22.331 -9.58821 7.89866 -38.7025 68.0279 3.78452 -61.9075 2.27034 -22.2321 -1.28866 2.5159 0.16169 11.6924 5.85519 -0.0 0.0 -0.0 10.9051 3.50116 -21.7172 -29.5674 38.6852 -61.0074 0.461937 12.8893 -0.0521794 -54.8902 4.65499 -4.91391 -2.95107 -20.0698 9.47863 0.0 0.0 0.0 -21.117 -1.60159 11.4783 -16.2819 0.32138 2.46956 28.6954 9.06839 -3.75142 -15.2828 0.0 0.0 -0.0 0.0 -0.0 28.2945 19.7212 0.924182 -12.2923 -0.307844 -1.85771 -7.20316 13.0764 -1.15116 -15.0775 0.0 0.0 0.0 0.0 0.0 
1134.57 681.412 -1494.63 4.77532 77.7403 -13.386 -0.247721 0.868825 4.33609 -0.237459 0.59142 4.38246 -0.185627 -0.357269 4.40768 -0.212565 0.34263 4.40884 -11.1073 13.6781 -18.3009 -10.6383 37.7746 -14.3108 -0.0 0.0 -0.0 -8.98534 23.7774 -9.70549 5.52206 -38.6534 67.24 3.48341 -59.8924 2.0072 -23.7824 -1.41367 2.67026 0.257701 10.3787 5.94991 -0.0 0.0 -0.0 11.0007 3.73234 -21.9319 -28.395 39.2557 -62.2849 0.557983 15.4514 -0.0756978 -54.736 4.63631 -4.90739 -2.90648 -21.5761 8.38616 0.0 0.0 0.0 -20.7821 -3.42195 11.0793 -18.061 0.313677 2.74242 26.0334 8.44827 -3.45143 -15.3113 0.0 0.0 -0.0 0.0 -0.0 27.5368 19.3229 0.37008 -12.671 -0.310959 -1.91574 -4.78032 13.8042 -0.764314 -16.0474 0.0 0.0 0.0 0.0 0.0 
1113.35 687.841 -1500.84 5.82141 78.1297 -14.32 -0.192073 0.794271 4.37386 -0.18158 0.51462 4.41542 -0.135548 -0.435702 4.42389 -0.162749 0.267728 4.4372 -11.4946 13.2474 -18.7207 -11.0286 37.1676 -14.7084 -0.0 0.0 -0.0 -8.63056 23.945 -9.12973 2.13927 -38.2795 65.5995 3.02644 -56.2844 1.6191 -25.2453 -1.53544 2.81279 0.169924 12.5721 6.25459 -0.0 0.0 -0.0 10.8203 4.72609 -21.5767 -27.1408 40.1532 -63.2374 0.719607 19.6198 -0.124427 -54.6127 4.62139 -4.90214 -2.91839 -22.7811 7.79546 0.0 0.0 0.0 -19.8596 -4.53503 10.8003 -20.0709 0.29479 3.05021 25.1444 8.17416 -3.34862 -15.4773 0.0 0.0 -0.0 0.0 -0.0 25.765 18.8063 0.583604 -13.1973 -0.31465 -1.9964 -3.61111 15.431 -0.58296 -15.2347 0.0 0.0 0.0 0.0 0.0 
1089.95 693.115 -1508.19 5.23518 77.5116 -13.5348 -0.153529 0.871488 4.46468 -0.142634 0.58592 4.51095 -0.0898576 -0.382545 4.53269 -0.118359 0.337352 4.53627 -11.3558 13.2625 -19.5415 -10.7685 37.761 -15.612 -0.0 0.0 -0.0 -8.29972 23.9648 -8.64899 -1.67172 -37.5051 64.0519 2.6216 -52.394 1.28999 -24.1277 -1.44209 2.70418 0.474704 10.3787 7.34708 -0.0 0.0 -0.0 10.7283 3.94384 -21.3537 -26.3927 40.3122 -63.2352 0.935856 24.8718 -0.206381 -55.1368 4.6849 -4.92423 -3.33294 -23.4467 9.83862 0.0 0.0 0.0 -17.8176 -5.10178 10.3991 -21.4224 0.276023 3.25673 24.5659 5.94942 -3.28052 -15.2948 0.0 0.0 -0.0 0.0 -0.0 21.7584 18.2353 0.192365 -8.72551 -0.259719 -1.31262 0.772096 16.2457 0.124065 -16.8031 0.0 0.0 0.0 0.0 0.0 
1069.8 698.808 -1514.09 5.46376 78.4048 -14.1282 0.100022 0.790436 4.5101 0.111194 0.50215 4.55114 0.156879 -0.453549 4.55623 0.128023 0.270939 4.57069 -12.6874 13.416 -19.8935 -12.3477 37.9719 -15.3583 -0.0 0.0 -0.0 -8.11114 23.5567 -8.52738 -4.92572 -37.769 63.054 2.39477 -49.863 1.11334 -22.8333 -1.33665 2.57616 0.792594 10.3167 9.37975 -0.0 0.0 -0.0 10.8785 3.20151 -21.6482 -26.7488 39.5482 -61.583 1.15283 29.7287 -0.305985 -56.4139 4.84044 -4.97561 -3.87303 -23.3613 13.0646 0.0 0.0 0.0 -16.5635 -5.62376 10.1709 -22.4723 0.258085 3.41683 25.166 3.1284 -3.35619 -15.5181 0.0 0.0 -0.0 0.0 -0.0 19.9737 17.8156 0.92815 -9.35039 -0.270601 -1.40789 3.46906 16.1418 0.552513 -18.5308 0.0 0.0 0.0 0.0 0.0 
1060.97 697.17 -1519.54 5.73226 78.3369 -14.4514 0.208053 0.947381 4.51459 0.219147 0.658494 4.56558 0.277389 -0.293415 4.6034 0.248094 0.436502 4.59207 -13.1491 13.4701 -20.5587 -12.8373 38.3791 -15.8251 -0.0 0.0 -0.0 -7.72295 23.7227 -7.91333 -4.95537 -37.6867 62.9288 1.8657 -42.7402 0.73009 -22.5198 -1.31155 2.5448 1.14796 9.93608 11.555 -0.0 0.0 -0.0 11.091 3.51162 -22.1178 -26.9714 41.0944 -60.2314 1.31593 33.0977 -0.391032 -56.442 4.84387 -4.9767 -4.20976 -20.6149 16.8489 0.0 0.0 0.0 -15.3137 -6.82158 9.82357 -23.9407 0.228081 3.64016 27.5848 1.87803 -3.63567 -15.842 0.0 0.0 -0.0 0.0 -0.0 18.4074 17.2623 0.663916 -7.1215 -0.227033 -1.06866 5.30782 14.9755 0.832833 -21.0321 0.0 0.0 0.0 0.0 0.0 
1048.38 702.547 -1520.23 7.71332 78.7784 -16.2512 0.348847 1.07297 4.54605 0.360001 0.781837 4.60494 0.428443 -0.168066 4.66768 0.398505 0.570408 4.63582 -14.9291 13.7528 -21.7441 -14.8994 39.1494 -16.1709 -0.0 0.0 -0.0 -7.49203 23.7559 -7.57367 -6.06076 -38.173 62.7693 1.51471 -36.8801 0.505079 -21.3024 -1.21573 2.42175 1.69383 9.37975 14.9642 -0.0 0.0 -0.0 10.9305 2.24176 -21.7168 -25.488 41.3762 -58.7048 1.43402 35.3867 -0.457491 -55.8705 4.77412 -4.95418 -5.08085 -20.0052 22.8202 0.0 0.0 0.0 -13.4428 -7.11497 9.53472 -26.2997 0.167918 3.99716 26.3894 -0.291074 -3.51471 -17.0095 0.0 0.0 -0.0 0.0 -0.0 17.4902 15.274 -0.710165 -8.16105 -0.248995 -1.22667 8.48037 2.79473 1.23333 -23.5652 0.0 0.0 0.0 0.0 0.0 
1038.9 710.136 -1523.81 9.28791 80.2177 -17.2562 0.45736 0.804275 4.5222 0.468586 0.515194 4.56409 0.51435 -0.414854 4.57428 0.485297 0.311994 4.58243 -14.8377 13.9954 -20.2894 -14.9725 38.7589 -14.6439 -0.0 0.0 -0.0 -6.20016 23.0818 -5.95501 -7.49387 -37.6562 61.6194 1.09071 -28.3819 0.275818 -21.6031 -1.23915 2.45233 1.6829 10.1525 15.1675 -0.0 0.0 -0.0 10.8926 2.82762 -21.6627 -25.5688 42.5651 -56.9079 1.49731 36.5628 -0.494675 -55.8339 4.76966 -4.95271 -5.03032 -17.604 24.2028 0.0 0.0 0.0 -10.1163 -6.76145 9.23619 -27.5594 0.129782 4.18672 29.4806 -3.04313 -3.88233 -16.8011 0.0 0.0 -0.0 0.0 -0.0 16.3946 13.3283 -0.622668 -8.43391 -0.254285 -1.26821 10.0659 6.65427 1.47768 -24.8391 0.0 0.0 0.0 0.0 0.0 
1026.54 714.436 -1531.03 12.7298 81.4949 -20.5561 0.539334 0.546838 4.40048 0.550064 0.265997 4.4263 0.574424 -0.627231 4.38977 0.54755 0.0732157 4.43366 -13.4855 13.1846 -20.3285 -13.2346 37.6131 -15.5493 -0.0 0.0 -0.0 -5.72868 23.3755 -5.20425 -9.28494 -37.7233 60.4335 0.68901 -18.8456 0.114348 -21.3567 -1.21995 2.42728 2.06182 10.2255 17.7351 -0.0 0.0 -0.0 10.909 2.63302 -21.689 -25.3627 44.0458 -56.6105 1.54568 37.438 -0.523782 -55.9051 4.77834 -4.95556 -5.35646 -18.0798 26.0793 0.0 0.0 0.0 -7.22246 -5.48672 9.2352 -28.6645 0.0928984 4.3523 28.3466 -8.77643 -3.84045 -16.9696 0.0 0.0 -0.0 0.0 -0.0 13.5319 12.0184 -0.941352 -4.9962 -0.173225 -0.746959 12.8104 0.0682488 1.81912 -25.5451 0.0 0.0 0.0 0.0 0.0 
1005.92 721.307 -1533.9 12.224 82.7951 -19.8597 0.575493 0.643335 4.3003 0.585703 0.368655 4.33244 0.617312 -0.504253 4.31879 0.591339 0.183481 4.3442 -14.7415 13.5836 -20.6952 -14.7543 38.2532 -15.2565 -0.0 0.0 -0.0 -5.08456 23.7258 -4.21053 -10.3865 -37.4647 59.5876 0.438802 -12.2638 0.0471416 -21.1586 -1.20458 2.40707 2.42017 10.4008 20.236 -0.0 0.0 -0.0 10.6875 1.86704 -21.1825 -26.0736 44.684 -55.1391 1.49056 36.4391 -0.49066 -55.9587 4.78487 -4.9577 -5.46021 -18.5916 26.4074 0.0 0.0 0.0 -5.48122 -4.60049 8.84415 -28.1535 0.11035 4.27583 28.2861 -12.8488 -3.91813 -17.0994 0.0 0.0 -0.0 0.0 -0.0 11.7473 11.1609 -0.778506 -2.48399 -0.094276 -0.369523 14.8245 -4.53409 2.07247 -26.0228 0.0 0.0 0.0 0.0 0.0 
